<svg xmlns="http://www.w3.org/2000/svg" viewBox="0 0 32 32" fill="none">
  <rect width="32" height="32" rx="8" fill="#121212" />
  <path
    fill="#dec7a6"
    d="M10.2 7.5c.9-.9 2.3-.9 3.2 0l1.1 1.1-3.2 3.2-1.1-1.1c-.9-.9-.9-2.3 0-3.2zm8.4 0c.9-.9 2.3-.9 3.2 0 .9.9.9 2.3 0 3.2l-1.1 1.1-3.2-3.2 1.1-1.1zM8.5 22.8l1.4-1.4 3.2 3.2-1.4 1.4c-.9.9-2.3.9-3.2 0-.9-.9-.9-2.3 0-3.2zm15 0c.9-.9.9-2.3 0-3.2l-1.4-1.4-3.2 3.2 1.4 1.4c.9.9 2.3.9 3.2 0zM14.2 14.2l3.6 3.6-1.1 1.1-3.6-3.6 1.1-1.1zm-1.5 4.7 3.6-3.6 1.1 1.1-3.6 3.6-1.1-1.1z" />
  <circle cx="16" cy="16" r="2.2" fill="#f8f5ef" />
</svg>
